<?xml version="1.0" encoding="UTF-8" standalone="no"?>
<!DOCTYPE svg PUBLIC "-//W3C//DTD SVG 1.1//EN" "http://www.w3.org/Graphics/SVG/1.1/DTD/svg11.dtd">
<svg width="100%" height="100%" viewBox="0 0 128 128" version="1.1" xmlns="http://www.w3.org/2000/svg" xmlns:xlink="http://www.w3.org/1999/xlink" xml:space="preserve" xmlns:serif="http://www.serif.com/" style="fill-rule:evenodd;clip-rule:evenodd;stroke-linejoin:round;stroke-miterlimit:2;">
    <g transform="matrix(5.33333,0,0,5.33333,0,0)">
        <path d="M20,2L8,2C6.903,2 6,2.903 6,4L6,16C6,17.097 6.903,18 8,18L20,18C21.097,18 22,17.097 22,16L22,4C22,2.903 21.097,2 20,2M20,16L8,16L8,4L20,4M12.5,15C13.871,15 15,13.871 15,12.5L15,7L18,7L18,5L14,5L14,10.5C13.58,10.19 13.07,10 12.5,10C11.129,10 10,11.129 10,12.5C10,13.871 11.129,15 12.5,15M4,6L2,6L2,20C2,21.097 2.903,22 4,22L18,22L18,20L4,20" style="fill-rule:nonzero;"/>
    </g>
</svg>
